Coordinates
version=1
nRows=17
nColumns=23
inDegrees=yes

Units are S.I. units (second, meters, Newtons, ...)
Angles are in degrees.

endheader
time	thorax_tilt	thorax_list	thorax_rotation	thorax_tx	thorax_ty	thorax_tz	sternoclavicular_r2	sternoclavicular_r3	unrotscap_r3	unrotscap_r2	acromioclavicular_r2	acromioclavicular_r3	acromioclavicular_r1	unrothum_r1	unrothum_r3	unrothum_r2	elv_angle	shoulder_elv	shoulder1_r2	shoulder_rot	elbow_flexion	pro_sup
      2.56000000	     -6.12843180	      0.72766171	     -9.71835372	     -0.39306237	      1.57955081	      0.03613702	     -2.87562539	      1.21578883	     -1.21796089	      2.87368079	     -0.58182670	      4.70139629	      2.11363308	     -2.11426454	     -4.70300791	      0.58198002	      1.27342276	     11.87510579	     -1.27320907	     25.65377377	     46.13275600	     11.48858646
      2.56400000	     -6.28493570	      0.73156108	     -9.75327757	     -0.39266681	      1.57932901	      0.03609852	     -2.87853045	      1.21703648	     -1.21918609	      2.87663353	     -0.58245081	      4.70634364	      2.11587315	     -2.11638121	     -4.70774470	      0.58255163	      1.22731804	     11.88748013	     -1.22747863	     25.66527765	     45.96138484	     11.49624774
      2.56800000	     -5.93407787	      0.72752425	     -9.58802181	     -0.39363412	      1.58035911	      0.03585716	     -2.87094244	      1.21379221	     -1.21596069	      2.86892984	     -0.58087596	      4.69360559	      2.11011837	     -2.11079706	     -4.69530195	      0.58101377	      0.87526088	     11.85589654	     -0.87531797	     25.81557903	     44.49597513	     11.59616056
      2.57200000	     -5.95307551	      0.72910049	     -9.59784857	     -0.39400937	      1.58006366	      0.03601426	     -2.87133505	      1.21413994	     -1.21592069	      2.86930430	     -0.58093797	      4.69409779	      2.10999246	     -2.11150644	     -4.69610363	      0.58111226	      0.87156569	     11.85757600	     -0.87150583	     25.81504684	     44.48679687	     11.59625153
      2.57600000	     -6.24291450	      0.72536129	     -9.68705899	     -0.39277848	      1.57961703	      0.03602166	     -2.87744346	      1.21650321	     -1.21878497	      2.87556003	     -0.58216042	      4.70434759	      2.11497063	     -2.11566299	     -4.70613111	      0.58239768	      0.82018548	     11.88324109	     -0.82022895	     25.81709106	     44.32410529	     11.59979739
      2.58000000	     -6.39707400	      0.74163252	     -9.72569436	     -0.39238401	      1.57943874	      0.03611506	     -2.87798787	      1.21679330	     -1.21896993	      2.87612443	     -0.58232010	      4.70543224	      2.11544214	     -2.11605051	     -4.70695153	      0.58247144	      0.77350944	     11.88549420	     -0.77341932	     25.83484722	     44.16025085	     11.60755434
      2.58400000	     -6.00073599	      0.71293561	     -9.61604964	     -0.39326336	      1.58050409	      0.03596516	     -2.86126421	      1.20967040	     -1.21189689	      2.85920517	     -0.57893210	      4.67770002	      2.10301546	     -2.10370648	     -4.67943664	      0.57903848	      0.37597934	     11.81574455	     -0.37602064	     26.04724389	     42.63256437	     11.71629579
      2.58800000	     -6.15246208	      0.70972797	     -9.67676907	     -0.39279791	      1.58013488	      0.03607292	     -2.86235919	      1.21012220	     -1.21241661	      2.86047477	     -0.57911202	      4.67967093	      2.10390506	     -2.10452919	     -4.68145714	      0.57933847	      0.33835499	     11.82094276	     -0.33846784	     26.04871558	     42.55621880	     11.71812168
      2.59200000	     -6.29342134	      0.71031495	     -9.72153863	     -0.39242879	      1.57981587	      0.03618659	     -2.86369478	      1.21071830	     -1.21298665	      2.86183845	     -0.57938366	      4.68191822	      2.10492345	     -2.10551837	     -4.68364236	      0.57961615	      0.29937305	     11.82630827	     -0.29908145	     26.05867503	     42.45103840	     11.72245505
      2.59600000	     -6.43347542	      0.70891306	     -9.75688919	     -0.39202852	      1.57956356	      0.03623497	     -2.86609344	      1.21177525	     -1.21392381	      2.86422833	     -0.57986771	      4.68583864	      2.10658914	     -2.10736745	     -4.68754777	      0.58009935	      0.25506399	     11.83566567	     -0.25500490	     26.07605780	     42.30570596	     11.72957188
      2.60000000	     -6.05900597	      0.65195371	     -9.62928204	     -0.39296493	      1.58055386	      0.03599744	     -2.84806417	      1.20411406	     -1.20624726	      2.84613203	     -0.57623048	      4.65628047	      2.09328470	     -2.09401922	     -4.65795400	      0.57641043	     -0.16355400	     11.76152755	      0.16347857	     26.35514100	     40.85122754	     11.84378404
      2.60400000	     -6.07675082	      0.65332359	     -9.63899437	     -0.39332913	      1.58031902	      0.03613587	     -2.84849484	      1.20448129	     -1.20627960	      2.84649814	     -0.57630451	      4.65674787	      2.09322769	     -2.09470364	     -4.65878627	      0.57650569	     -0.16719381	     11.76323143	      0.16714689	     26.35475811	     40.84318620	     11.84382364
      2.60800000	     -6.34150764	      0.65248675	     -9.72450545	     -0.39220030	      1.57993521	      0.03615092	     -2.85433699	      1.20681699	     -1.20894209	      2.85243669	     -0.57749606	      4.66655496	      2.09792466	     -2.09869814	     -4.66829156	      0.57770197	     -0.21685233	     11.78757983	      0.21688513	     26.36032626	     40.69842477	     11.84717822
      2.61200000	     -6.48169240	      0.66751135	     -9.76367484	     -0.39183398	      1.57978793	      0.03626913	     -2.85486148	      1.20708193	     -1.20915328	      2.85311985	     -0.57765107	      4.66781231	      2.09846565	     -2.09917388	     -4.66924990	      0.57781838	     -0.26333594	     11.79028957	      0.26339460	     26.38271978	     40.55243512	     11.85495116
      2.61600000	     -6.07364463	      0.62343505	     -9.68179270	     -0.39263093	      1.58078564	      0.03614261	     -2.83824411	      1.19998214	     -1.20212618	      2.83625578	     -0.57425503	      4.64011471	      2.08607006	     -2.08677539	     -4.64187083	      0.57440249	     -0.70602279	     11.72083771	      0.70594607	     26.69920225	     39.07197016	     11.97639995
      2.62000000	     -6.09100717	      0.62419937	     -9.69096437	     -0.39298722	      1.58056871	      0.03627337	     -2.83866638	      1.20034560	     -1.20213094	      2.83669682	     -0.57431150	      4.64070232	      2.08602566	     -2.08747496	     -4.64273208	      0.57452644	     -0.70960557	     11.72268915	      0.70953531	     26.69900999	     39.06434726	     11.97645306
      2.62400000	     -6.34540929	      0.61853971	     -9.76864219	     -0.39192211	      1.58013985	      0.03629544	     -2.84465131	      1.20277956	     -1.20488602	      2.84297531	     -0.57557430	      4.65116520	      2.09102035	     -2.09167506	     -4.65264999	      0.57578136	     -0.75722831	     11.74851364	      0.75699962	     26.70696230	     38.92859080	     11.97998806
